<svg height="512" viewBox="0 0 128 128" width="512" xmlns="http://www.w3.org/2000/svg"><g><path d="m1.75 31.693h124.5v84.707h-124.5z" fill="#66666d"/><path d="m1.75 11.6h124.5v20.093h-124.5z" fill="#444156"/><path d="m16.125 23.4h-6.375a1.75 1.75 0 0 1 0-3.5h6.375a1.75 1.75 0 0 1 0 3.5z" fill="#f9f9f9"/><path d="m31.625 23.4h-6.375a1.75 1.75 0 0 1 0-3.5h6.375a1.75 1.75 0 0 1 0 3.5z" fill="#f9f9f9"/><path d="m47.125 23.4h-6.375a1.75 1.75 0 0 1 0-3.5h6.375a1.75 1.75 0 0 1 0 3.5z" fill="#f9f9f9"/><g fill="#fff16b"><path d="m9.75 39.693h68.437v43.525h-68.437z"/><path d="m86.313 39.693h31.937v18.342h-31.937z"/><path d="m86.313 64.875h31.937v18.342h-31.937z"/><path d="m86.313 90.058h31.937v18.342h-31.937z"/></g><path d="m70.187 73.468h-42.5v-.438a1.75 1.75 0 0 0 -3.5 0v.438h-6.437a1.75 1.75 0 0 0 0 3.5h6.437v.437a1.75 1.75 0 0 0 3.5 0v-.437h42.5a1.75 1.75 0 0 0 0-3.5z" fill="#444156"/><path d="m36.422 66v-15.094l15.094 7.547z" fill="#ff7d47"/><path d="m31.5 93.046h-21.75a1.75 1.75 0 0 1 0-3.5h21.75a1.75 1.75 0 0 1 0 3.5z" fill="#f9f9f9"/><path d="m23 100.979h-13.25a1.75 1.75 0 0 1 0-3.5h13.25a1.75 1.75 0 0 1 0 3.5z" fill="#f9f9f9"/></g></svg>